<?xml version="1.0" standalone="no"?>
<!DOCTYPE svg PUBLIC "-//W3C//DTD SVG 20010904//EN"
 "http://www.w3.org/TR/2001/REC-SVG-20010904/DTD/svg10.dtd">
<svg version="1.0" xmlns="http://www.w3.org/2000/svg"
 width="532.000000pt" height="532.000000pt" viewBox="0 0 532.000000 532.000000"
 preserveAspectRatio="xMidYMid meet">

<g transform="translate(0.000000,532.000000) scale(0.100000,-0.100000)"
fill="#000000" stroke="none">
<path d="M2460 5314 c-568 -52 -1081 -261 -1504 -613 -814 -677 -1149 -1794
-842 -2806 260 -859 922 -1521 1781 -1781 385 -117 819 -144 1213 -75 1141
200 2004 1084 2184 2236 31 201 31 569 0 770 -133 853 -633 1560 -1392 1968
-47 25 -129 64 -183 87 l-97 41 -25 -29 c-13 -16 -72 -91 -130 -168 -58 -76
-132 -172 -163 -213 -238 -305 -300 -399 -274 -408 20 -8 14 -20 -18 -33 -60
-25 -35 -41 107 -74 62 -14 152 -41 200 -60 48 -19 90 -31 93 -27 16 24 382
464 419 504 14 15 30 27 34 27 12 0 -43 -74 -246 -330 -166 -208 -178 -226
-160 -238 256 -183 384 -326 471 -524 185 -423 103 -894 -211 -1217 -185 -191
-381 -297 -638 -346 -44 -8 -99 -15 -120 -15 -26 0 -39 -4 -39 -13 0 -8 175
-319 389 -693 214 -373 386 -682 382 -685 -3 -4 -183 -8 -400 -10 l-394 -4
-110 190 c-135 234 -300 521 -439 765 -100 175 -134 233 -323 560 -219 379
-296 512 -315 549 l-20 41 277 0 c505 1 1007 11 1048 22 203 53 339 262 304
468 -28 160 -149 296 -301 338 -47 13 -52 9 -158 -117 -47 -55 -92 -101 -100
-101 -9 0 -11 3 -5 8 6 4 15 14 20 23 6 10 40 57 77 105 l67 89 -297 3 -297 3
-48 -52 c-56 -61 -72 -59 -27 3 l31 43 -23 6 c-38 11 -682 10 -698 0 -9 -6
-19 -6 -25 -1 -6 5 -85 11 -175 12 l-164 3 -53 90 c-29 50 -56 97 -60 105 -4
8 -25 47 -48 85 -142 239 -224 382 -227 393 -3 13 194 18 927 21 l370 2 217
272 c195 244 419 519 581 712 48 58 55 71 41 78 -16 9 -406 18 -484 11z"/>
<path d="M2783 5027 c-193 -242 -275 -344 -401 -496 -21 -25 -81 -99 -135
-165 l-99 -121 274 -3 c150 -2 296 0 324 3 59 7 116 38 108 59 -3 9 3 17 16
21 18 6 21 12 16 36 -7 35 9 47 25 18 11 -21 13 -20 61 32 71 76 181 201 263
299 138 165 320 375 342 396 13 12 23 26 23 31 0 28 -331 119 -572 158 -25 4
-44 -16 -245 -268z"/>
</g>
</svg>
